<?xml version="1.0" encoding="UTF-8"?>
<svg version="1.1" viewBox="0 0 48 48" xmlns="http://www.w3.org/2000/svg" width="16" height="16">
<path d="M0 0 C6.01074194 4.26537152 10.68915297 8.54367658 12 16 C12.85064971 23.01477807 11.6760371 29.02649037 7.7109375 34.9140625 C3.54680291 40.14706586 -1.3397649 43.65782335 -8 45 C-14.04589132 45.59095178 -19.752382 45.26426631 -25 42 C-31.06227341 36.63554223 -35.27368321 30.89354196 -36.2734375 22.78125 C-36.58575619 15.76609168 -34.71567397 10.47819573 -30.75 4.75 C-22.4412546 -3.5587454 -10.44064483 -5.94619582 0 0 Z " fill="#757575" transform="translate(36,3)"/>
<path d="M0 0 C2.3125 0.5 2.3125 0.5 5 2 C7.80424017 6.67738496 8.57703584 11.6143322 8 17 C6.2560624 23.59663353 3.48194945 28.67105588 -2.5 32.25 C-8.82834485 35.41417242 -14.51050263 35.98994809 -21.375 33.8125 C-23.3984375 33 -23.3984375 33 -25 32 C-26 29.3125 -26 29.3125 -26 27 C-22.14939156 23.38602113 -19.80803246 22.54942787 -14.5625 22.5 C-8.98062662 22.22879033 -6.11223984 21.78758933 -2 18 C0.73427616 14.94519865 1.37459062 13.08657218 1.25 9 C1.23453125 8.154375 1.2190625 7.30875 1.203125 6.4375 C1.01512019 4.18144231 0.62330092 2.17149996 0 0 Z " fill="#C0C0C0" transform="translate(37,10)"/>
<path d="M0 0 C4.33729795 2.25205855 7.13397371 4.4386024 9 9 C9.82639885 15.50789096 9.82639885 15.50789096 8.015625 18.77734375 C5.75998139 21.62474572 3.50444734 23.96928019 0 25 C-4.38054581 25.48672731 -6.48715991 25.28491116 -10.375 23.125 C-13 21 -13 21 -14 19 C-10.97265625 18.36523438 -10.97265625 18.36523438 -7.9453125 17.73046875 C-5.62953451 17.07691162 -5.62953451 17.07691162 -4 14 C-3.75714105 10.44874671 -3.75714105 10.44874671 -5 7 C-7.29096529 5.42701665 -9.29992658 4.83456815 -12 4 C-8.13930402 -0.03618216 -5.66274613 -0.47189551 0 0 Z " fill="#000000" transform="translate(28,6)"/>
<path d="M0 0 C2.48328545 1.85538248 4.77099267 3.8476148 7 6 C6.67 6.66 6.34 7.32 6 8 C5.50371094 7.59007812 5.00742187 7.18015625 4.49609375 6.7578125 C-1.94593061 1.64819925 -7.60511058 -0.73639381 -16 0 C-22.77300942 1.65763902 -26.78549922 4.75733814 -30.75 10.5625 C-33.42328798 15.77541156 -33.92028252 21.38653774 -32.46875 27.0859375 C-30.90278444 31.52851371 -28.75861643 35.19501183 -26 39 C-29.35066172 37.614012 -30.83371851 36.2243823 -32.6875 33.125 C-33.10386719 32.44695313 -33.52023438 31.76890625 -33.94921875 31.0703125 C-36.65003826 25.74899525 -36.8327719 19.61304974 -35.50390625 13.84765625 C-33.42432377 7.72639933 -30.04826955 3.03954433 -24.4375 -0.3125 C-16.4918816 -4.21307631 -7.84082134 -4.33308548 0 0 Z " fill="#B1B1B1" transform="translate(36,3)"/>
<path d="M0 0 C3.4375 0.8125 3.4375 0.8125 5.4375 3.8125 C5.25 7.375 5.25 7.375 4.4375 10.8125 C1.4375 12.8125 1.4375 12.8125 -2.125 12.625 C-5.5625 11.8125 -5.5625 11.8125 -7.5625 8.8125 C-7.375 5.25 -7.375 5.25 -6.5625 1.8125 C-3.5625 -0.1875 -3.5625 -0.1875 0 0 Z " fill="#FFFFFF" transform="translate(17.5625,11.1875)"/>
<path d="M0 0 C3.4375 0.8125 3.4375 0.8125 5.4375 3.8125 C5.25 7.375 5.25 7.375 4.4375 10.8125 C1.4375 12.8125 1.4375 12.8125 -2.125 12.625 C-5.5625 11.8125 -5.5625 11.8125 -7.5625 8.8125 C-7.375 5.25 -7.375 5.25 -6.5625 1.8125 C-3.5625 -0.1875 -3.5625 -0.1875 0 0 Z M-5.5625 3.8125 C-5.89583333 6.3125 -5.89583333 6.3125 -5.5625 8.8125 C-3.73546773 11.0616908 -3.73546773 11.0616908 -1.0625 11.0625 C1.61046773 11.0616908 1.61046773 11.0616908 3.4375 8.8125 C3.77083333 6.3125 3.77083333 6.3125 3.4375 3.8125 C1.61046773 1.5633092 1.61046773 1.5633092 -1.0625 1.5625 C-3.73546773 1.5633092 -3.73546773 1.5633092 -5.5625 3.8125 Z " fill="#C0C0C0" transform="translate(17.5625,11.1875)"/>
<path d="M0 0 C-4.455 2.97 -4.455 2.97 -9 6 C-8 2 -8 2 -6.1875 0.1875 C-4 -1 -4 -1 0 0 Z " fill="#C8C8C8" transform="translate(15,4)"/>
</svg>
